{"title":"American Pickers S08E08 The Georgia Gambler HDTV XviD-AFG","uid":12060852,"size":445216101,"categoryP":"video","categoryS":"tv_shows","magnet":"?xt=urn:btih:cc039cb627e1ba997cb6087d2a5082759af10037&amp;dn=American+Pickers+S08E08+The+Georgia+Gambler+HDTV+XviD-AFG&amp;tr=udp%3A%2F%2Ftracker.openbittorrent.com%3A80&amp;tr=udp%3A%2F%2Fopen.demonii.com%3A1337&amp;tr=udp%3A%2F%2Ftracker.coppersurfer.tk%3A6969&amp;tr=udp%3A%2F%2Fexodus.desync.com%3A6969","seeders":1,"leechers":0,"uploader":"toots2boots","files":2,"time":1435254928,"description":"American.Pickers.S08E08.The.Georgia.Gambler.XviD-AFG.avi\n\nGeneral\nComplete name                            : M:PostsAmerican Pickers S08E08 The Georgia Gambler HDTV XviD-AFGAmerican.Pickers.S08E08.The.Georgia.Gambler.XviD-AFG.avi\nFormat                                   : AVI\nFormat/Info                              : Audio Video Interleave\nFile size                                : 425 MiB\nDuration                                 : 41mn 59s\nOverall bit rate                         : 1 414 Kbps\nWriting application                      : Lavf56.36.100\n\nVideo\nID                                       : 0\nFormat                                   : xvid\nCodec ID                                 : xvid\nDuration                                 : 41mn 59s\nBit rate                                 : 1 272 Kbps\nWidth                                    : 640 pixels\nHeight                                   : 360 pixels\nDisplay aspect ratio                     : 16:9\nFrame rate                               : 29.970 fps\nBits/(Pixel*Frame)                       : 0.184\nStream size                              : 382 MiB (90%)\n\nAudio\nID                                       : 1\nFormat                                   : MPEG Audio\nFormat version                           : Version 1\nFormat profile                           : Layer 3\nMode                                     : Joint stereo\nMode extension                           : MS Stereo\nCodec ID                                 : 55\nCodec ID/Hint                            : MP3\nDuration                                 : 41mn 59s\nBit rate mode                            : Constant\nBit rate                                 : 128 Kbps\nChannel(s)                               : 2 channels\nSampling rate                            : 48.0 KHz\nCompression mode                         : Lossy\nStream size                              : 38.4 MiB (9%)\nAlignment                                : Aligned on interleaves\nInterleave, duration                     : 24 ms (0.72 video frame)\nInterleave, preload duration             : 24 ms","torrent":{"xt":"urn:btih:cc039cb627e1ba997cb6087d2a5082759af10037","amp;dn":"American+Pickers+S08E08+The+Georgia+Gambler+HDTV+XviD-AFG","amp;tr":["udp%3A%2F%2Ftracker.openbittorrent.com%3A80","udp%3A%2F%2Fopen.demonii.com%3A1337","udp%3A%2F%2Ftracker.coppersurfer.tk%3A6969","udp%3A%2F%2Fexodus.desync.com%3A6969"],"infoHash":"cc039cb627e1ba997cb6087d2a5082759af10037","infoHashBuffer":{"type":"Buffer","data":[204,3,156,182,39,225,186,153,124,182,8,125,42,80,130,117,154,241,0,55]},"announce":[],"urlList":[]}}